HIERARCHY
ROOT hip
{
  OFFSET 0 0 0
  CHANNELS 6 Xposition Yposition Zposition Zrotation Yrotation Xrotation
  JOINT abdomen
  {
    OFFSET 0 20.6881 -0.73152
    CHANNELS 3 Zrotation Xrotation Yrotation
    JOINT chest
    {
      OFFSET 0 11.7043 -0.48768
      CHANNELS 3 Zrotation Xrotation Yrotation
      JOINT neck
      {
        OFFSET 0 22.1894 -2.19456
        CHANNELS 3 Zrotation Xrotation Yrotation
        JOINT head
        {
          OFFSET -0.24384 7.07133 1.2192
          CHANNELS 3 Zrotation Xrotation Yrotation
          JOINT leftEye
          {
            OFFSET 4.14528 8.04674 8.04672
            CHANNELS 3 Zrotation Xrotation Yrotation
            End Site
            {
              OFFSET 1 0 0
            }
          }
          JOINT rightEye
          {
            OFFSET -3.6576 8.04674 8.04672
            CHANNELS 3 Zrotation Xrotation Yrotation
            End Site
            {
              OFFSET 1 0 0
            }
          }
        }
      }
      JOINT rCollar
      {
        OFFSET -2.68224 19.2634 -4.8768
        CHANNELS 3 Zrotation Xrotation Yrotation
        JOINT rShldr
        {
          OFFSET -8.77824 -1.95073 1.46304
          CHANNELS 3 Zrotation Xrotation Yrotation
          JOINT rForeArm
          {
            OFFSET -28.1742 -1.7115 0.48768
            CHANNELS 3 Zrotation Xrotation Yrotation
            JOINT rHand
            {
              OFFSET -22.5879 0.773209 7.07136
              CHANNELS 3 Zrotation Xrotation Yrotation
              JOINT rThumb1
              {
                OFFSET -1.2192 -0.487915 3.41376
                CHANNELS 3 Zrotation Xrotation Yrotation
                JOINT rThumb2
                {
                  OFFSET -3.37035 -0.52449 3.41376
                  CHANNELS 3 Zrotation Xrotation Yrotation
                  End Site
                  {
                    OFFSET -1.78271 -1.18214 1.43049
                  }
                }
              }
              JOINT rIndex1
              {
                OFFSET -7.75947 0.938293 5.60832
                CHANNELS 3 Zrotation Xrotation Yrotation
                JOINT rIndex2
                {
                  OFFSET -2.54057 -0.884171 1.56538
                  CHANNELS 3 Zrotation Xrotation Yrotation
                  End Site
                  {
                    OFFSET -1.62519 -0.234802 1.16502
                  }
                }
              }
              JOINT rMid1
              {
                OFFSET -8.24714 1.18213 3.41376
                CHANNELS 3 Zrotation Xrotation Yrotation
                JOINT rMid2
                {
                  OFFSET -3.10165 -0.590103 1.0647
                  CHANNELS 3 Zrotation Xrotation Yrotation
                  End Site
                  {
                    OFFSET -2.48547 -0.328903 0.83742
                  }
                }
              }
              JOINT rRing1
              {
                OFFSET -8.82822 0.546677 1.51678
                CHANNELS 3 Zrotation Xrotation Yrotation
                JOINT rRing2
                {
                  OFFSET -2.60934 -0.819778 -0.0198488
                  CHANNELS 3 Zrotation Xrotation Yrotation
                  End Site
                  {
                    OFFSET -2.33842 -0.294052 0.168128
                  }
                }
              }
              JOINT rPinky1
              {
                OFFSET -8.27202 -0.0477905 -0.4584
                CHANNELS 3 Zrotation Xrotation Yrotation
                JOINT rPinky2
                {
                  OFFSET -1.82734 -0.647385 -0.700984
                  CHANNELS 3 Zrotation Xrotation Yrotation
                  End Site
                  {
                    OFFSET -1.69225 -0.51767 -0.607171
                  }
                }
              }
            }
          }
        }
      }
      JOINT lCollar
      {
        OFFSET 2.68224 19.2634 -4.8768
        CHANNELS 3 Zrotation Xrotation Yrotation
        JOINT lShldr
        {
          OFFSET 8.77824 -1.95073 1.46304
          CHANNELS 3 Zrotation Xrotation Yrotation
          JOINT lForeArm
          {
            OFFSET 28.1742 -1.7115 0.48768
            CHANNELS 3 Zrotation Xrotation Yrotation
            JOINT lHand
            {
              OFFSET 22.5879 0.773209 7.07136
              CHANNELS 3 Zrotation Xrotation Yrotation
              JOINT lThumb1
              {
                OFFSET 1.2192 -0.487915 3.41376
                CHANNELS 3 Zrotation Xrotation Yrotation
                JOINT lThumb2
                {
                  OFFSET 3.37035 -0.52449 3.41376
                  CHANNELS 3 Zrotation Xrotation Yrotation
                  End Site
                  {
                    OFFSET 1.78271 -1.18214 1.43049
                  }
                }
              }
              JOINT lIndex1
              {
                OFFSET 7.75947 0.938293 5.60832
                CHANNELS 3 Zrotation Xrotation Yrotation
                JOINT lIndex2
                {
                  OFFSET 2.54057 -0.884171 1.56538
                  CHANNELS 3 Zrotation Xrotation Yrotation
                  End Site
                  {
                    OFFSET 1.62519 -0.234802 1.16502
                  }
                }
              }
              JOINT lMid1
              {
                OFFSET 8.24714 1.18213 3.41376
                CHANNELS 3 Zrotation Xrotation Yrotation
                JOINT lMid2
                {
                  OFFSET 3.10165 -0.590103 1.0647
                  CHANNELS 3 Zrotation Xrotation Yrotation
                  End Site
                  {
                    OFFSET 2.48547 -0.328903 0.83742
                  }
                }
              }
              JOINT lRing1
              {
                OFFSET 8.82822 0.546677 1.51678
                CHANNELS 3 Zrotation Xrotation Yrotation
                JOINT lRing2
                {
                  OFFSET 2.60934 -0.819778 -0.0198488
                  CHANNELS 3 Zrotation Xrotation Yrotation
                  End Site
                  {
                    OFFSET 2.33842 -0.294052 0.168128
                  }
                }
              }
              JOINT lPinky1
              {
                OFFSET 8.27202 -0.0477905 -0.4584
                CHANNELS 3 Zrotation Xrotation Yrotation
                JOINT lPinky2
                {
                  OFFSET 1.82734 -0.647385 -0.700984
                  CHANNELS 3 Zrotation Xrotation Yrotation
                  End Site
                  {
                    OFFSET 1.69225 -0.51767 -0.607171
                  }
                }
              }
            }
          }
        }
      }
    }
  }
  JOINT rButtock
  {
    OFFSET -8.77824 4.35084 1.2192
    CHANNELS 3 Zrotation Xrotation Yrotation
    JOINT rThigh
    {
      OFFSET 0 -1.70687 -2.19456
      CHANNELS 3 Zrotation Xrotation Yrotation
      JOINT rShin
      {
        OFFSET 0 -36.8199 0.73152
        CHANNELS 3 Zrotation Xrotation Yrotation
        JOINT rFoot
        {
          OFFSET 0.73152 -45.1104 -5.12064
          CHANNELS 3 Zrotation Xrotation Yrotation
          End Site
          {
            OFFSET -1.1221 -3.69964 12.103
          }
        }
      }
    }
  }
  JOINT lButtock
  {
    OFFSET 8.77824 4.35084 1.2192
    CHANNELS 3 Zrotation Xrotation Yrotation
    JOINT lThigh
    {
      OFFSET 0 -1.70687 -2.19456
      CHANNELS 3 Zrotation Xrotation Yrotation
      JOINT lShin
      {
        OFFSET 0 -36.8199 0.73152
        CHANNELS 3 Zrotation Xrotation Yrotation
        JOINT lFoot
        {
          OFFSET -0.73152 -45.1104 -5.12064
          CHANNELS 3 Zrotation Xrotation Yrotation
          End Site
          {
            OFFSET 1.1221 -3.69964 12.103
          }
        }
      }
    }
  }
}
MOTION
Frames:	7
Frame Time:	0.03333
-63.5201 57.102 18.641 -169.76758 -53.66578 169.735548 -0.399745 15.225697 0.0 -0.062491 -13.609845 18.549433 -11.875349 21.921113 -60.90082 37.006419 6.808525 88.003622 0.004735 0.0 0.003475 -0.001989 0.0 -0.002195 0.023105 -0.138724 -0.03012 31.294387 -88.036321 -36.435804 -57.305278 24.936245 -153.890137 -165.733906 -37.893504 162.045025 -178.520224 -16.063916 89.475294 -15.898155 -46.552125 -0.647045 16.966272 -30.493982 -5.900077 -157.591646 -12.975433 111.393306 -36.036234 51.722901 29.832796 144.501969 -74.629946 112.559023 2.3e-05 0.036413 0.011051 -154.234439 12.766395 170.10459 6.763717 20.646832 6.030342 -148.150942 13.025392 -143.933697 -4.239023 -44.742727 8.648418 105.992662 -19.681915 175.916815 -176.698107 14.482134 93.504172 14.571988 58.046686 -8.128916 178.927388 -16.453793 -89.421214 83.415269 11.793767 -28.495248 134.539151 10.541479 -112.295835 158.023185 -2.832371 -117.933148 169.087983 -33.247365 -145.376636 176.872571 -42.218338 -142.422498 73.164447 -72.142661 90.198033 148.582714 44.325705 -169.52736 124.849419 -29.037185 122.620416 -34.384159 74.530176 -0.709266 179.964683 75.749828 0.029058 156.904076 36.090151 -0.0 96.321775 82.733549 46.732475 63.060871 36.80685 173.276038 179.99451 75.75074 0.003756 -135.465681 11.476383 81.631204 67.094256 5.040848 -96.804652 -118.488873 -47.414101 1.636397
-63.757799999999996 56.9793 18.5317 -169.847322 -53.265548 170.028582 -0.512239 15.07223 0.112595 -0.044714 -13.566725 18.56528 -12.418259 25.796938 -82.965241 36.978067 19.63299 106.907885 -0.003373 -0.0 0.000363 -0.003071 -0.0 0.001187 -3.767976 17.921029 4.640873 117.011504 -71.898262 50.100942 70.028947 -66.808479 -86.7515 -105.946876 48.231681 91.086277 -2.925658 2.862158 0.520825 -153.664852 -63.312902 117.087833 -173.601668 -52.69288 119.891044 3.486718 20.160143 -4.30288 -141.109117 35.60086 129.173459 -7.328879 26.147766 6.388484 -0.009296 -0.872151 -0.273673 -155.33804 -1.040618 171.971548 -124.851408 -29.04025 -122.623729 -126.031799 -29.808325 -124.46046 80.165969 68.371165 -83.261019 105.122548 34.1971 -75.555388 153.618245 54.535271 114.288537 5.646839 39.625586 -4.14191 169.146113 -6.826247 -89.916166 172.815659 -10.569913 -89.741842 90.225095 41.072179 -75.796852 174.804887 -27.459436 -113.74584 -6.533237 -20.41492 2.717647 170.354421 -26.241044 -144.287915 70.379591 -72.129767 87.280234 -14.726531 0.481315 4.461599 8.191429 -17.575519 7.730642 153.912017 36.701202 148.294371 -179.980751 75.748202 -0.015838 156.575131 33.623822 -180.0 -102.964983 -81.617601 -154.587815 108.650976 39.653085 157.879697 0.000862 0.000478 -0.0 62.250786 -37.108023 50.045006 -10.234541 67.608966 41.051277 -100.359193 -6.076984 17.874796
-64.0408 56.81 18.4207 -170.045333 -53.076002 170.392439 -0.555524 10.100331 -176.835439 0.617982 8.715853 -164.481768 -5.732325 15.542289 -11.31005 22.894357 -19.00515 43.053212 0.003879 0.0 0.002525 -0.001791 -0.0 0.00333 -152.128882 14.113481 157.557518 -84.3409 51.330844 45.834223 -170.770838 15.069065 -69.875523 -18.304432 -58.441407 -17.919357 -2.890777 2.827503 0.513833 -78.987424 23.506317 72.956635 37.218179 -57.916989 -0.639564 -3.874612 27.711365 5.136775 -161.152646 -8.160758 143.465234 -128.938293 51.842306 118.06577 -145.119957 0.225794 -179.201153 -152.948499 -21.619083 -175.992505 -12.372771 -24.158415 -11.757769 -39.90337 -49.944559 -40.68133 -3.192347 -25.838891 5.073906 -65.368443 8.225093 -12.640171 -154.953286 24.133021 -69.282838 -162.379105 -19.578129 -146.51593 -88.928291 -50.831139 -37.599838 15.678688 -43.071495 30.194062 0.32793 0.529866 -0.18582 171.804515 -27.394957 -108.459648 174.943868 -48.56559 -144.391469 1.519722 12.578725 -2.500962 145.112049 -0.668592 178.918407 -9.164153 -11.266781 10.530853 144.110969 8.781636 140.874355 162.349928 55.874362 146.677539 -179.976629 75.750304 -0.015991 156.13695 33.43471 180.0 -97.820458 -81.514744 -158.683847 -141.83239 -21.047299 169.123071 179.981655 75.74868 0.012551 -134.847639 10.643055 100.409751 75.490591 -19.288481 -1.562277 -31.215853 51.138147 -51.495541
-64.3422 56.629200000000004 18.3202 -170.024262 -53.137274 170.498007 -0.80225 14.713376 3.155677 -0.652157 -13.472582 15.481272 -12.551959 24.20337 -73.193508 37.98811 14.31355 98.476448 0.00408 0.0 0.00182 0.003315 -0.0 -0.003796 -159.221007 -48.724869 170.568142 162.538531 -17.382013 -152.138778 167.994344 27.181926 36.85675 -116.079292 45.662134 101.74933 -173.770111 -11.440144 89.891667 -171.413338 -8.567383 91.41361 5.92211 -10.174343 -2.968966 -95.869783 45.095741 76.35574 78.536279 -80.919571 49.685966 13.864504 -32.239246 -1.05665 -74.840297 72.961719 92.827694 5.566641 19.680197 -1.993595 9.030481 28.890855 7.892065 -147.695099 11.038729 -143.392262 -0.070754 -0.427863 0.09448 -90.590941 -33.306259 -39.467257 -167.378487 -8.615421 -56.123328 -157.389957 -29.76611 -142.904895 -76.384971 -49.200033 -28.871197 15.898898 -30.001819 26.074174 5.795255 8.773144 -3.565172 66.299393 48.371946 -50.261432 82.841987 61.110464 -74.531648 -92.042425 -78.384805 -62.852829 145.108271 -0.952643 178.828378 135.717581 -63.54702 157.796491 156.383813 53.734269 150.116601 147.225373 8.696356 141.247534 -0.000311 0.000993 0.0004 -24.780595 -37.115588 -180.0 -78.256179 -54.433243 137.927365 -60.008116 34.200729 -32.118752 179.979979 75.749601 0.016473 -133.325589 11.623816 -10.902134 -6.16248 75.463564 99.828586 -133.800134 41.271251 55.019202
-64.6801 56.4809 18.2563 -169.803267 -53.32761 170.419473 0.149675 14.534967 -16.234882 3.039603 -13.053708 35.11897 7.635261 19.743632 68.986486 -24.992184 -13.75882 -45.054844 -0.003851 -0.0 0.004711 0.001049 -0.0 -0.001711 -155.417634 -2.951758 161.717485 140.944001 3.270323 168.767122 -163.285566 -47.10256 41.513371 -143.543422 26.772549 131.091471 2.435948 -2.418922 -0.323436 36.559839 -63.722779 -19.54174 -19.170547 24.114319 13.381534 -85.483066 48.220485 64.53402 -161.153351 -8.160752 143.464806 5.197354 -5.864923 -0.31348 -0.001086 -0.018243 -0.007546 -153.055825 22.49042 168.513339 -0.529781 -1.36407 -0.4905 -151.174449 25.256156 -146.535188 28.500301 57.372655 -30.873261 96.204703 21.830068 -88.505466 -176.36308 30.676316 92.536761 14.472613 58.032464 -8.111559 2.606732 2.555298 -0.457237 103.651414 8.229796 -94.764308 151.093546 -16.67963 -121.048982 134.270449 32.287465 -108.309368 -7.904537 -24.807561 3.012568 179.763979 -48.696616 -141.451867 145.111105 -0.667751 178.917291 70.9936 87.698733 -84.334015 135.821156 -11.892741 133.186222 -1.921125 -2.14703 2.549683 -179.973041 75.749008 -0.022182 154.183865 34.024868 126.7412 96.724227 -37.97983 102.713238 67.81917 -3.670745 153.48969 -0.004369 0.000633 -0.002185 63.629608 -37.116541 51.757226 -35.754508 79.218859 -165.443899 108.644884 51.666929 170.975916
-65.0887 56.3808 18.2641 -169.662974 -53.540333 170.428848 0.106357 14.465948 -13.503219 2.466652 -13.15096 32.263232 -6.311419 33.99245 -143.64055 10.676208 44.766061 170.061645 -0.004001 0.0 -0.000732 0.002006 -0.0 -0.000734 -155.459979 -3.228094 161.77667 -51.286473 23.129343 11.245051 177.747801 -20.127353 -69.911149 -17.709994 -45.97946 -12.084267 4.417516 -4.400372 -0.512073 -132.801167 -29.781932 118.23219 129.214719 -75.527974 76.339924 -169.147008 -35.987932 113.910748 78.537484 -80.919006 49.689083 -172.385408 -31.321441 143.879431 0.001496 -0.018547 -0.005475 -36.401721 76.187885 49.56279 -110.054786 -41.783525 -108.128471 -146.068712 10.233928 -141.968106 9.651301 34.836202 -11.199283 159.326856 -15.319525 -114.893798 137.96508 -86.340226 -99.437069 -144.936669 -46.355328 -132.289059 2.814728 2.753845 -0.498398 -22.068183 -32.684597 12.974744 120.308884 25.997401 -101.631915 3.686904 18.323091 3.326377 -173.122946 -66.297631 -137.615177 -2.48859 1.609783 -0.475562 145.118374 0.225861 179.20098 73.703399 -78.006492 95.206557 -1.135719 3.040591 -1.042415 81.370882 -54.431697 80.893886 -0.000656 0.000529 0.000843 -25.341511 -34.273158 -0.0 88.749508 51.47786 27.716524 122.400126 48.410415 146.397369 179.99615 75.750064 0.003168 -133.364401 10.91838 -0.0 20.239457 69.619321 17.190628 -96.155868 5.348286 16.327694
-65.5617 56.308800000000005 18.409100000000002 -169.474985 -53.814198 170.44466 -0.246553 14.429642 -0.0 -0.26307 -13.407606 18.328273 5.617415 17.532729 53.168659 -17.497805 -20.416728 -29.511062 0.001508 -0.0 -0.003247 0.001508 -0.0 -0.003247 -159.220602 -48.028555 170.414933 77.71546 66.785855 -107.812141 135.639474 7.531518 -19.303545 -35.306493 19.6412 16.369876 -7.351577 7.06207 1.570524 -37.02273 23.669035 36.188736 19.568719 -35.040267 -5.985655 -63.319353 49.993781 51.504015 -36.036704 51.723051 29.832113 3.133536 0.800158 0.177395 -114.670078 66.731971 135.093065 3.912733 50.155359 1.996085 -140.003806 -2.494383 -137.118711 16.442516 41.569076 5.94544 0.000159 -2.3e-05 -9.6e-05 -50.78066 17.587314 -37.931357 55.254712 -39.493795 -41.089587 -3.457366 10.711321 -4.666921 0.440899 0.435501 -0.070433 138.084267 -41.618822 -118.817431 151.679949 -17.764761 -121.23676 157.035154 -6.741011 -119.286011 0.057502 0.167902 -0.03206 -86.238726 -78.350434 -57.500895 75.671587 -72.116784 92.828744 -14.033629 28.308259 0.852527 158.218124 60.370025 150.794951 78.485488 -53.19031 77.279173 -179.995828 75.750015 -0.004304 154.980585 34.158689 -140.265896 -89.726864 -54.492252 -0.306874 4.44038 -59.450234 74.786396 179.949318 75.748469 0.0417 -132.116516 9.579593 -81.443631 -83.364313 9.392394 -90.014468 94.750434 27.712721 179.475853
